<?xml version="1.0" encoding="utf-8"?>
<!-- Generator: Adobe Illustrator 18.0.0, SVG Export Plug-In . SVG Version: 6.00 Build 0)  -->
<!DOCTYPE svg PUBLIC "-//W3C//DTD SVG 1.1//EN" "http://www.w3.org/Graphics/SVG/1.1/DTD/svg11.dtd">
<svg version="1.1" xmlns="http://www.w3.org/2000/svg" xmlns:xlink="http://www.w3.org/1999/xlink" x="0px" y="0px"
	 viewBox="0 0 16 16" enable-background="new 0 0 16 16" xml:space="preserve">
<g id="Layer_1" display="none">
	<g display="inline">
		<polygon points="14.9,16.1 1,8 14.9,0 		"/>
	</g>
</g>
<g id="Layer_2">
	<rect x="1" y="1" width="6" height="14"/>
	<rect x="9" y="1" width="6" height="14"/>
</g>
<g id="Layer_3" display="none">
	<path display="inline" fill="#010101" d="M16,11V1c0-0.3-0.1-0.5-0.3-0.7S15.3,0,15,0H1C0.7,0,0.5,0.1,0.3,0.3S0,0.7,0,1v10
		c0,0.3,0.1,0.5,0.3,0.7C0.5,11.9,0.7,12,1,12h14c0.3,0,0.5-0.1,0.7-0.3C15.9,11.5,16,11.3,16,11z M8,3c1.1,0,2.2,0.3,3.2,0.8
		c1,0.5,1.9,1.3,2.8,2.2c-0.8,0.9-1.7,1.7-2.8,2.2S9.1,9,8,9S5.8,8.7,4.8,8.2S2.8,6.9,2,6c0.8-0.9,1.7-1.7,2.8-2.2
		C5.8,3.3,6.9,3,8,3z M10,6c0-0.5-0.2-1-0.6-1.4S8.5,4,8,4S7,4.2,6.6,4.6S6,5.5,6,6s0.2,1,0.6,1.4S7.5,8,8,8s1-0.2,1.4-0.6
		S10,6.5,10,6z M12,14h3v1H1v-1h3v-1h8V14z"/>
</g>
</svg>
