<?xml version="1.0" encoding="utf-8"?>
<!-- Generator: Adobe Illustrator 18.0.0, SVG Export Plug-In . SVG Version: 6.00 Build 0)  -->
<!DOCTYPE svg PUBLIC "-//W3C//DTD SVG 1.1//EN" "http://www.w3.org/Graphics/SVG/1.1/DTD/svg11.dtd">
<svg version="1.1" xmlns="http://www.w3.org/2000/svg" xmlns:xlink="http://www.w3.org/1999/xlink" x="0px" y="0px"
	 viewBox="0 0 16 16" enable-background="new 0 0 16 16" xml:space="preserve">
<g id="Layer_1" display="none">
	<g display="inline">
		<polygon points="1,16.1 14.9,8 1,0 		"/>
	</g>
</g>
<g id="Layer_5">
	<path fill="#010101" d="M10.5,9.3c-0.2,0-0.5,0-0.7-0.1C9.6,9.1,9.5,9,9.3,8.8C9.2,8.7,9.1,8.5,9,8.3C8.8,8.1,8.8,7.9,8.7,7.8
		S8.6,7.4,8.5,7.3c0-0.2-0.1-0.3-0.1-0.4l0-0.1c0-0.3,0-0.6,0-0.8c0-0.3,0.1-0.5,0.2-0.8S8.8,4.7,9,4.5C9.1,4.3,9.4,4.1,9.6,4
		s0.5-0.2,0.9-0.2c0.5,0,1,0.1,1.3,0.4c0.3,0.3,0.6,0.7,0.7,1.1c0.1,0.4,0.1,0.9,0.1,1.4c0,0,0,0.1,0,0.1c0,0.1,0,0.2-0.1,0.4
		c0,0.2-0.1,0.4-0.2,0.5c-0.1,0.2-0.1,0.3-0.3,0.6s-0.2,0.4-0.4,0.5s-0.3,0.3-0.5,0.4C10.9,9.3,10.7,9.3,10.5,9.3z M10.5,11.2
		l2.1-1.4c0.6,0,1.1,0.2,1.7,0.5s1,0.8,1.3,1.3c0.3,0.5,0.5,1.1,0.5,1.6v1.9c-0.1,0-0.2,0.1-0.3,0.1c-0.1,0-0.4,0.1-0.8,0.2
		c-0.4,0.1-0.8,0.2-1.3,0.3c-0.4,0.1-0.9,0.1-1.5,0.2S11,16,10.5,16c-0.5,0-1.1,0-1.6-0.1c-0.6-0.1-1.1-0.1-1.5-0.2
		c-0.4-0.1-0.8-0.2-1.2-0.3s-0.7-0.2-0.8-0.2L5,15.1v-1.9c0-0.6,0.1-1.1,0.4-1.6c0.3-0.5,0.7-0.9,1.2-1.3C7.2,10,7.8,9.8,8.4,9.8
		L10.5,11.2z"/>
	<path fill="#010101" d="M1.5,7.1h-1c0-3.7,3-6.6,6.6-6.6v1C4,1.5,1.5,4,1.5,7.1z"/>
	<path fill="#010101" d="M3.5,7.1h-1c0-2.6,2.1-4.6,4.6-4.6v1C5.1,3.5,3.5,5.1,3.5,7.1z"/>
	<path fill="#010101" d="M5.5,7.1h-1c0-1.4,1.2-2.6,2.6-2.6v1C6.2,5.5,5.5,6.2,5.5,7.1z"/>
</g>
<g id="Layer_2" display="none">
	<rect x="1" y="1" display="inline" width="6" height="14"/>
	<rect x="9" y="1" display="inline" width="6" height="14"/>
</g>
<g id="Layer_3" display="none">
	<path display="inline" fill="#010101" d="M16,11V1c0-0.3-0.1-0.5-0.3-0.7S15.3,0,15,0H1C0.7,0,0.5,0.1,0.3,0.3S0,0.7,0,1v10
		c0,0.3,0.1,0.5,0.3,0.7C0.5,11.9,0.7,12,1,12h14c0.3,0,0.5-0.1,0.7-0.3C15.9,11.5,16,11.3,16,11z M8,3c1.1,0,2.2,0.3,3.2,0.8
		c1,0.5,1.9,1.3,2.8,2.2c-0.8,0.9-1.7,1.7-2.8,2.2S9.1,9,8,9S5.8,8.7,4.8,8.2S2.8,6.9,2,6c0.8-0.9,1.7-1.7,2.8-2.2
		C5.8,3.3,6.9,3,8,3z M10,6c0-0.5-0.2-1-0.6-1.4S8.5,4,8,4S7,4.2,6.6,4.6S6,5.5,6,6s0.2,1,0.6,1.4S7.5,8,8,8s1-0.2,1.4-0.6
		S10,6.5,10,6z M12,14h3v1H1v-1h3v-1h8V14z"/>
</g>
<g id="Layer_4" display="none">
	<path display="inline" fill="#333333" d="M11.9,2H8.7L7.6,5.3H12l-7.5,8.6l4.8-2.7h2.2c2.9,0,3.9-1.4,4.2-3.7L16,5.1
		C16.2,3.5,14.9,2,11.9,2z"/>
	<path display="inline" fill="#333333" d="M3.7,7.9L4.5,2L0.9,1.9L0.1,7.6L0,8.1c-0.2,1.5,0.4,3,3.3,3.1h2l1.1-3.3H3.7z"/>
</g>
</svg>
