<svg xmlns="http://www.w3.org/2000/svg" xmlns:xlink="http://www.w3.org/1999/xlink" version="1.1" id="Layer_1" x="0" y="0" width="60" height="60" viewBox="0 0 60 60" xml:space="preserve" enable-background="new 0 0 60 60"><path d="M58.06 24.84l-5.5-1.4c-0.47-1.63-1.12-3.19-1.91-4.65l2.91-4.89c0.06-0.1 0.11-0.21 0.16-0.31 0.56-0.77 0.49-1.84-0.2-2.53l-4.54-4.54c-0.77-0.76-1.85-0.51-2.77 0l-4.88 2.9C39.85 8.61 38.3 7.96 36.67 7.48l-1.4-5.51c-0.03-0.12-0.07-0.23-0.11-0.34 -0.15-0.93-0.96-1.65-1.93-1.65h-6.42c-1.09 0-1.68 0.95-1.96 1.96l-1.4 5.51c-1.63 0.47-3.19 1.12-4.65 1.92L13.91 6.45c-0.1-0.06-0.21-0.11-0.32-0.16 -0.77-0.56-1.84-0.49-2.53 0.2l-4.55 4.54c-0.76 0.77-0.51 1.85 0 2.77l2.91 4.89c-0.8 1.46-1.46 3.01-1.94 4.64l-5.51 1.41c-0.12 0.03-0.23 0.07-0.34 0.11 -0.93 0.15-1.65 0.96-1.65 1.93v6.42c0 1.09 0.95 1.68 1.96 1.96l5.5 1.4c0.47 1.63 1.12 3.19 1.91 4.65L6.45 46.09c-0.06 0.11-0.11 0.21-0.16 0.32 -0.56 0.76-0.49 1.84 0.2 2.54l4.55 4.55c0.76 0.77 1.85 0.51 2.77 0l4.88-2.9c1.46 0.8 3.01 1.45 4.64 1.93l1.4 5.51c0.03 0.11 0.07 0.23 0.11 0.34 0.15 0.93 0.96 1.65 1.93 1.65h6.43c1.08 0 1.68-0.94 1.96-1.96l1.4-5.5c1.63-0.47 3.19-1.12 4.65-1.91l4.89 2.91c0.1 0.06 0.21 0.11 0.31 0.16 0.77 0.56 1.84 0.49 2.53-0.2l4.55-4.54c0.77-0.76 0.52-1.85 0-2.77l-2.9-4.88c0.81-1.46 1.46-3.01 1.94-4.64l5.51-1.4c0.11-0.04 0.23-0.07 0.34-0.11 0.93-0.15 1.65-0.96 1.65-1.93v-6.43C60.02 25.72 59.08 25.13 58.06 24.84zM30 49.24c-10.63 0-19.24-8.61-19.24-19.24s8.62-19.24 19.24-19.24c10.63 0 19.25 8.62 19.25 19.24S40.63 49.24 30 49.24zM37.45 35.28l0 0.01L37.45 35.28C37.45 35.28 37.45 35.28 37.45 35.28zM24.05 26.1c0-0.85-0.68-1.56-1.52-1.56 0 0 0 0 0 0 -0.36 0-0.64 0.11-0.87 0.23l-6.77 3.22c-0.91 0.43-1.4 1.12-1.4 1.98v0.2c0 0.86 0.48 1.55 1.4 1.98l6.77 3.21c0.29 0.14 0.54 0.21 0.77 0.21 0 0 0 0 0 0h0.05c0.9 0 1.59-0.66 1.59-1.54 0-0.67-0.38-1.25-1.02-1.54l-5.46-2.44 5.46-2.44C23.7 27.29 24.05 26.77 24.05 26.1zM33.8 20.68c-0.6 0-1.06 0.3-1.34 0.87l-7.86 16.43c-0.11 0.25-0.16 0.49-0.16 0.7 0 0.78 0.68 1.44 1.49 1.44 0.6 0 1.06-0.3 1.34-0.87l7.87-16.44c0.11-0.26 0.16-0.49 0.16-0.7C35.29 21.34 34.61 20.68 33.8 20.68zM46.53 29.96v0.2c0 0.86-0.48 1.55-1.4 1.98l-6.77 3.22c-0.24 0.12-0.51 0.23-0.87 0.23h-0.04c-0.81 0-1.49-0.72-1.49-1.56 0-0.67 0.35-1.19 1.02-1.5l5.47-2.44 -5.46-2.44c-0.64-0.29-1.02-0.87-1.02-1.54 0-1.15 1.19-1.94 2.4-1.33l6.77 3.21C46.05 28.42 46.53 29.1 46.53 29.96zM37.45 35.29l0-0.01c0 0 0 0 0 0V35.29z" fill="#FFF"/></svg>