<?xml version="1.0" encoding="UTF-8" standalone="no"?>
<!-- Generator: Adobe Illustrator 18.0.0, SVG Export Plug-In . SVG Version: 6.00 Build 0)  -->

<svg
   xmlns:dc="http://purl.org/dc/elements/1.1/"
   xmlns:cc="http://creativecommons.org/ns#"
   xmlns:rdf="http://www.w3.org/1999/02/22-rdf-syntax-ns#"
   xmlns:svg="http://www.w3.org/2000/svg"
   xmlns="http://www.w3.org/2000/svg"
   xmlns:sodipodi="http://sodipodi.sourceforge.net/DTD/sodipodi-0.dtd"
   xmlns:inkscape="http://www.inkscape.org/namespaces/inkscape"
   version="1.1"
   id="Layer_1"
   x="0px"
   y="0px"
   viewBox="0 0 364.36017 159.51623"
   enable-background="new 0 0 380.4 159.8"
   xml:space="preserve"
   sodipodi:docname="wpcom-vip-logo.svg"
   width="364.36017"
   height="159.51624"
   inkscape:version="0.92.1 r15371"><metadata
     id="metadata9"><rdf:RDF><cc:Work
         rdf:about=""><dc:format>image/svg+xml</dc:format><dc:type
           rdf:resource="http://purl.org/dc/dcmitype/StillImage" /></cc:Work></rdf:RDF></metadata><defs
     id="defs7"><clipPath
       clipPathUnits="userSpaceOnUse"
       id="clipPath4502"><path
         d="M 0,113.76 H 259.2 V 0 H 0 Z"
         id="path4500"
         inkscape:connector-curvature="0" /></clipPath></defs><sodipodi:namedview
     pagecolor="#ffffff"
     bordercolor="#666666"
     borderopacity="1"
     objecttolerance="10"
     gridtolerance="10"
     guidetolerance="10"
     inkscape:pageopacity="0"
     inkscape:pageshadow="2"
     inkscape:window-width="1589"
     inkscape:window-height="855"
     id="namedview5"
     showgrid="false"
     inkscape:zoom="0.72555206"
     inkscape:cx="186.31487"
     inkscape:cy="81.366801"
     inkscape:window-x="0"
     inkscape:window-y="27"
     inkscape:window-maximized="0"
     inkscape:current-layer="Layer_1" /><g
     transform="matrix(1.4078919,0,0,-1.4062347,-0.08813403,159.9374)"
     id="g4496"
     style="fill:#ffffff"><g
       id="g4498"
       clip-path="url(#clipPath4502)"
       style="fill:#ffffff"><g
         id="g4504"
         transform="translate(82.4146,12.9455)"
         style="fill:#ffffff"><path
           d="m 0,0 15.574,45.03 c 2.91,7.275 3.878,13.092 3.878,18.264 0,1.877 -0.123,3.62 -0.343,5.244 3.98,-7.262 6.245,-15.597 6.245,-24.464 C 25.354,25.264 15.16,8.838 0,0 m -18.609,67.983 c 3.069,0.161 5.836,0.484 5.836,0.484 2.747,0.325 2.423,4.363 -0.325,4.202 0,0 -8.259,-0.648 -13.591,-0.648 -5.011,0 -13.43,0.648 -13.43,0.648 -2.75,0.161 -3.072,-4.039 -0.323,-4.202 0,0 2.601,-0.323 5.348,-0.484 L -27.15,46.216 -38.312,12.748 -56.878,67.983 c 3.072,0.161 5.835,0.484 5.835,0.484 2.747,0.325 2.422,4.363 -0.326,4.202 0,0 -8.258,-0.648 -13.59,-0.648 -0.956,0 -2.084,0.024 -3.283,0.062 9.119,13.842 24.79,22.983 42.605,22.983 13.275,0 25.363,-5.075 34.434,-13.388 -0.219,0.014 -0.434,0.042 -0.66,0.042 -5.009,0 -8.563,-4.364 -8.563,-9.051 0,-4.202 2.424,-7.756 5.009,-11.959 1.938,-3.397 4.203,-7.759 4.203,-14.063 0,-4.366 -1.294,-9.857 -3.88,-16.485 L -0.181,13.168 Z m -7.028,-74.906 c -5.005,0 -9.837,0.736 -14.405,2.077 l 15.302,44.46 15.672,-42.943 c 0.103,-0.249 0.229,-0.481 0.365,-0.701 -5.3,-1.866 -10.995,-2.893 -16.934,-2.893 m -50.99,50.997 c 0,7.394 1.585,14.412 4.415,20.754 L -47.888,-1.817 C -64.9,6.447 -76.627,23.89 -76.627,44.074 m 50.99,56.715 c -31.272,0 -56.715,-25.442 -56.715,-56.715 0,-31.275 25.443,-56.72 56.715,-56.72 31.273,0 56.716,25.445 56.716,56.72 0,31.273 -25.443,56.715 -56.716,56.715"
           style="fill:#ffffff;fill-opacity:1;fill-rule:nonzero;stroke:none"
           id="path4506"
           inkscape:connector-curvature="0" /></g><g
         id="g4508"
         transform="translate(164.7783,83.2502)"
         style="fill:#ffffff"><path
           d="m 0,0 -11.458,-33.802 c -1.224,-4.114 -2.241,-8.025 -2.548,-11.698 h -0.295 c -0.305,3.673 -1.323,7.584 -2.548,11.698 L -28.307,0 h -15.318 l 21.728,-57.021 H -6.408 L 15.319,0 Z"
           style="fill:#ffffff;fill-opacity:1;fill-rule:nonzero;stroke:none"
           id="path4510"
           inkscape:connector-curvature="0" /></g><g
         id="g4512"
         transform="translate(187.7422,83.2585)"
         style="fill:#ffffff"><path
           d="M 0,0 -4.332,-11.37 V -57.022 H 10.986 V 0 Z"
           style="fill:#ffffff;fill-opacity:1;fill-rule:nonzero;stroke:none"
           id="path4514"
           inkscape:connector-curvature="0" /></g><g
         id="g4516"
         transform="translate(233.083,37.8147)"
         style="fill:#ffffff"><path
           d="m 0,0 c -3.944,0 -6.826,1.326 -8.645,3.979 -1.819,2.651 -2.728,7.038 -2.728,13.158 v 1.683 c 0.067,5.44 0.985,9.342 2.754,11.705 1.767,2.364 4.573,3.545 8.415,3.545 3.673,0 6.367,-1.403 8.085,-4.208 C 9.597,27.057 10.456,22.85 10.456,17.238 10.456,5.745 6.971,0 0,0 m 20.065,38.711 c -3.807,5.203 -9.078,7.804 -15.81,7.804 -7.141,0 -11.99,-2.823 -15.628,-8.467 h -0.714 l -2.193,7.396 h -12.414 v -82.95 h 15.321 v 23.939 c 0,0.748 -0.273,3.502 -0.816,8.262 h 0.816 c 3.808,-4.863 8.52,-7.294 15.22,-7.294 4.454,0 8.33,1.173 11.629,3.52 3.297,2.346 5.839,5.764 7.625,10.252 1.785,4.488 2.677,9.774 2.677,15.862 0,9.248 -1.904,16.474 -5.713,21.676"
           style="fill:#ffffff;fill-opacity:1;fill-rule:nonzero;stroke:none"
           id="path4518"
           inkscape:connector-curvature="0" /></g></g></g></svg>