<?xml version="1.0" encoding="iso-8859-1"?>
<!-- Generator: Adobe Illustrator 18.0.0, SVG Export Plug-In . SVG Version: 6.00 Build 0)  -->
<!DOCTYPE svg PUBLIC "-//W3C//DTD SVG 1.1//EN" "http://www.w3.org/Graphics/SVG/1.1/DTD/svg11.dtd">
<svg version="1.1" id="Layer_1" xmlns="http://www.w3.org/2000/svg" xmlns:xlink="http://www.w3.org/1999/xlink" x="0px" y="0px"
	 viewBox="0 0 90 35.92" style="enable-background:new 0 0 90 35.92;" xml:space="preserve">
<path style="fill:#3C3D45;" d="M42.69,9.27h4.13l6.41,16.34l6.38-16.34h4.04l-8.84,21.42h-3.28L42.69,9.27z M65.65,9.27h3.74v21.26
	h-3.74V9.27z M73.53,9.27h8.38c4.95,0,8.08,2.83,8.08,7.11v0.06c0,4.77-3.83,7.26-8.51,7.26h-4.22v6.84h-3.74V9.27z M81.61,20.33
	c2.83,0,4.59-1.58,4.59-3.8v-0.06c0-2.49-1.79-3.8-4.59-3.8h-4.34v7.65H81.61z M17.96,0C8.06,0,0,8.06,0,17.96
	c0,9.9,8.06,17.96,17.96,17.96c9.9,0,17.96-8.06,17.96-17.96C35.92,8.06,27.86,0,17.96,0z M1.81,17.96c0-2.34,0.5-4.56,1.4-6.57
	l7.7,21.1C5.53,29.87,1.81,24.35,1.81,17.96z M17.96,34.11c-1.59,0-3.12-0.23-4.56-0.66l4.85-14.08l4.96,13.6
	c0.03,0.08,0.07,0.15,0.12,0.22C21.64,33.78,19.84,34.11,17.96,34.11z M20.18,10.39c0.97-0.05,1.85-0.15,1.85-0.15
	c0.87-0.1,0.77-1.38-0.1-1.33c0,0-2.62,0.21-4.3,0.21c-1.59,0-4.25-0.21-4.25-0.21c-0.87-0.05-0.97,1.28-0.1,1.33
	c0,0,0.82,0.1,1.69,0.15l2.52,6.89l-3.53,10.6L8.07,10.39c0.97-0.05,1.85-0.15,1.85-0.15c0.87-0.1,0.77-1.38-0.1-1.33
	c0,0-2.61,0.21-4.3,0.21c-0.3,0-0.66-0.01-1.04-0.02c2.89-4.38,7.85-7.28,13.49-7.28c4.2,0,8.03,1.61,10.9,4.24
	c-0.07,0-0.14-0.01-0.21-0.01c-1.59,0-2.71,1.38-2.71,2.87c0,1.33,0.77,2.46,1.59,3.79c0.61,1.07,1.33,2.46,1.33,4.45
	c0,1.38-0.41,3.12-1.23,5.22l-1.61,5.38L20.18,10.39z M26.08,31.92l4.93-14.26c0.92-2.3,1.23-4.15,1.23-5.78
	c0-0.6-0.04-1.15-0.11-1.66c1.26,2.3,1.98,4.94,1.98,7.75C34.11,23.92,30.88,29.12,26.08,31.92z"/>
</svg>
