<?xml version="1.0" encoding="utf-8"?>
<!-- Generator: Adobe Illustrator 18.0.0, SVG Export Plug-In . SVG Version: 6.00 Build 0)  -->
<!DOCTYPE svg PUBLIC "-//W3C//DTD SVG 1.1//EN" "http://www.w3.org/Graphics/SVG/1.1/DTD/svg11.dtd">
<svg version="1.1" id="Layer_1" xmlns="http://www.w3.org/2000/svg" xmlns:xlink="http://www.w3.org/1999/xlink" x="0px" y="0px"
	 viewBox="0 0 380.4 159.8" enable-background="new 0 0 380.4 159.8" xml:space="preserve">
<path fill="#FFFFFF" d="M184.1,37.4h17.1l26.6,67.8l26.5-67.8H271l-36.7,88.8h-13.6L184.1,37.4z M279.3,37.4h15.5v88.2h-15.5V37.4z
	 M312,37.4h34.8c20.5,0,33.5,11.7,33.5,29.5v0.3c0,19.8-15.9,30.1-35.3,30.1h-17.5v28.3H312V37.4z M345.6,83.3
	c11.7,0,19-6.5,19-15.7v-0.3c0-10.3-7.4-15.8-19-15.8h-18v31.8H345.6z M79.9,0C35.8,0,0,35.8,0,79.9c0,44.1,35.8,79.9,79.9,79.9
	c44,0,79.9-35.8,79.9-79.9C159.8,35.8,123.9,0,79.9,0z M8,79.9c0-10.4,2.2-20.3,6.2-29.2l34.3,93.9C24.6,132.9,8,108.3,8,79.9z
	 M79.9,151.7c-7,0-13.9-1-20.3-2.9l21.6-62.6l22.1,60.5c0.2,0.3,0.3,0.7,0.5,1C96.3,150.3,88.3,151.7,79.9,151.7z M89.8,46.2
	c4.3-0.2,8.2-0.7,8.2-0.7c3.9-0.5,3.4-6.1-0.5-5.9c0,0-11.6,0.9-19.1,0.9c-7,0-18.9-0.9-18.9-0.9c-3.9-0.2-4.4,5.7-0.5,5.9
	c0,0,3.7,0.5,7.5,0.7l11.2,30.7L62,124L35.9,46.2c4.3-0.2,8.2-0.7,8.2-0.7c3.9-0.5,3.4-6.1-0.5-5.9c0,0-11.6,0.9-19.1,0.9
	c-1.4,0-2.9,0-4.6-0.1c12.8-19.5,34.9-32.4,60-32.4c18.7,0,35.7,7.1,48.5,18.9c-0.3,0-0.6-0.1-0.9-0.1c-7,0-12.1,6.2-12.1,12.8
	c0,5.9,3.4,10.9,7.1,16.8c2.7,4.8,5.9,10.9,5.9,19.8c0,6.1-1.8,13.9-5.5,23.2l-7.1,23.9L89.8,46.2z M116,142l21.9-63.4
	c4.1-10.3,5.5-18.4,5.5-25.7c0-2.7-0.2-5.1-0.5-7.4c5.6,10.2,8.8,22,8.8,34.5C151.7,106.4,137.3,129.5,116,142z"/>
</svg>
