<?xml version="1.0" encoding="utf-8"?>
<!-- Generator: Adobe Illustrator 17.1.0, SVG Export Plug-In . SVG Version: 6.00 Build 0)  -->
<!DOCTYPE svg PUBLIC "-//W3C//DTD SVG 1.1//EN" "http://www.w3.org/Graphics/SVG/1.1/DTD/svg11.dtd">
<svg version="1.1" id="Layer_1" xmlns="http://www.w3.org/2000/svg" xmlns:xlink="http://www.w3.org/1999/xlink" x="0px" y="0px"
	 viewBox="0 0 16 16" enable-background="new 0 0 16 16" xml:space="preserve">
<g>
	<g>
		<g>
			<g>
				<g>
					<path fill="#898989" d="M15.065,4.753c0,0.318-0.26,0.578-0.578,0.578H5.653c-0.318,0-0.578-0.26-0.578-0.578V3.651
						c0-0.318,0.26-0.578,0.578-0.578h8.834c0.318,0,0.578,0.26,0.578,0.578V4.753z"/>
				</g>
				<g>
					<path fill="#898989" d="M3.257,4.729c0,0.348-0.285,0.634-0.634,0.634H1.569c-0.348,0-0.634-0.285-0.634-0.634V3.675
						c0-0.348,0.285-0.634,0.634-0.634h1.054c0.348,0,0.634,0.285,0.634,0.634V4.729z"/>
				</g>
			</g>
			<g>
				<g>
					<path fill="#898989" d="M11.432,8.551c0,0.318-0.26,0.578-0.578,0.578H5.653c-0.318,0-0.578-0.26-0.578-0.578V7.449
						c0-0.318,0.26-0.578,0.578-0.578h5.202c0.318,0,0.578,0.26,0.578,0.578V8.551z"/>
				</g>
				<g>
					<path fill="#898989" d="M3.257,8.527c0,0.348-0.285,0.634-0.634,0.634H1.569c-0.348,0-0.634-0.285-0.634-0.634V7.473
						c0-0.348,0.285-0.634,0.634-0.634h1.054c0.348,0,0.634,0.285,0.634,0.634V8.527z"/>
				</g>
			</g>
			<g>
				<g>
					<path fill="#898989" d="M13.248,12.349c0,0.318-0.26,0.578-0.578,0.578H5.653c-0.318,0-0.578-0.26-0.578-0.578v-1.102
						c0-0.318,0.26-0.578,0.578-0.578h7.018c0.318,0,0.578,0.26,0.578,0.578V12.349z"/>
				</g>
				<g>
					<path fill="#898989" d="M3.257,12.325c0,0.348-0.285,0.634-0.634,0.634H1.569c-0.348,0-0.634-0.285-0.634-0.634v-1.054
						c0-0.348,0.285-0.634,0.634-0.634h1.054c0.348,0,0.634,0.285,0.634,0.634V12.325z"/>
				</g>
			</g>
		</g>
	</g>
</g>
</svg>
