<?xml version="1.0" encoding="utf-8"?>
<!-- Generator: Adobe Illustrator 17.1.0, SVG Export Plug-In . SVG Version: 6.00 Build 0)  -->
<!DOCTYPE svg PUBLIC "-//W3C//DTD SVG 1.1//EN" "http://www.w3.org/Graphics/SVG/1.1/DTD/svg11.dtd">
<svg version="1.1" id="Layer_1" xmlns="http://www.w3.org/2000/svg" xmlns:xlink="http://www.w3.org/1999/xlink" x="0px" y="0px"
	 viewBox="0 0 16 16" enable-background="new 0 0 16 16" xml:space="preserve">
<g>
	<circle fill="#49AF7D" cx="8" cy="8" r="7.333"/>
	<circle fill="none" cx="8" cy="8" r="7.333"/>
	<g>
		<defs>
			<circle id="SVGID_1_" cx="8" cy="8" r="7.333"/>
		</defs>
		<clipPath id="SVGID_2_">
			<use xlink:href="#SVGID_1_"  overflow="visible"/>
		</clipPath>
		<g clip-path="url(#SVGID_2_)">
			<polygon fill="#3C9F75" points="25.012,14.759 13.007,4.686 13.007,4.686 13.007,4.686 12.785,4.5 12.629,4.686 5.795,4.686 
				5.795,5.78 4.254,4.486 2.898,6.102 5.795,8.533 5.795,8.644 4.254,7.351 2.898,8.967 5.795,11.398 5.795,11.555 4.055,10.095 
				2.699,11.71 17.294,23.957 18.65,22.342 18.65,22.342 			"/>
			<g>
				<g>
					<g>
						<path fill="#FFFFFF" d="M13.267,5.766c0,0.238-0.194,0.432-0.432,0.432H6.227c-0.238,0-0.432-0.194-0.432-0.432V4.943
							c0-0.238,0.194-0.432,0.432-0.432h6.607c0.238,0,0.432,0.194,0.432,0.432V5.766z"/>
					</g>
					<g>
						<path fill="#FFFFFF" d="M4.435,5.749c0,0.261-0.213,0.474-0.474,0.474H3.173c-0.261,0-0.474-0.213-0.474-0.474V4.96
							c0-0.261,0.213-0.474,0.474-0.474h0.788c0.261,0,0.474,0.213,0.474,0.474V5.749z"/>
					</g>
				</g>
				<g>
					<g>
						<path fill="#FFFFFF" d="M10.55,8.607c0,0.238-0.194,0.432-0.432,0.432h-3.89c-0.238,0-0.432-0.194-0.432-0.432V7.783
							c0-0.238,0.194-0.432,0.432-0.432h3.89c0.238,0,0.432,0.194,0.432,0.432V8.607z"/>
					</g>
					<g>
						<path fill="#FFFFFF" d="M4.435,8.589c0,0.261-0.213,0.474-0.474,0.474H3.173c-0.261,0-0.474-0.213-0.474-0.474V7.801
							c0-0.261,0.213-0.474,0.474-0.474h0.788c0.261,0,0.474,0.213,0.474,0.474V8.589z"/>
					</g>
				</g>
				<g>
					<g>
						<path fill="#FFFFFF" d="M11.908,11.448c0,0.238-0.194,0.432-0.432,0.432H6.227c-0.238,0-0.432-0.194-0.432-0.432v-0.824
							c0-0.238,0.194-0.432,0.432-0.432h5.249c0.238,0,0.432,0.194,0.432,0.432V11.448z"/>
					</g>
					<g>
						<path fill="#FFFFFF" d="M4.435,11.43c0,0.261-0.213,0.474-0.474,0.474H3.173c-0.261,0-0.474-0.213-0.474-0.474v-0.788
							c0-0.261,0.213-0.474,0.474-0.474h0.788c0.261,0,0.474,0.213,0.474,0.474V11.43z"/>
					</g>
				</g>
			</g>
		</g>
	</g>
</g>
</svg>
